<svg width="93" height="41" viewBox="0 0 93 41" fill="none" xmlns="http://www.w3.org/2000/svg">
<ellipse cx="26.5342" cy="6.61246" rx="6.55833" ry="5.27839" transform="rotate(-12.9347 26.5342 6.61246)" fill="#FE7336"/>
<path d="M0 40C24.2853 18.5484 46.8823 10.1295 77.0767 6.10376C50.7135 6.88297 41.298 10.0647 32.9215 13.4413C24.5451 16.8179 11.4933 26.8826 0 40Z" fill="#FE7336"/>
<path d="M38.1527 29.4534C37.9025 29.4534 37.7411 29.5291 37.6687 29.6806C37.6029 29.832 37.5699 30.1843 37.5699 30.7374C37.5699 31.5737 37.6226 32.2257 37.728 32.6932C37.7609 32.8249 37.8103 32.927 37.8761 32.9994C37.942 33.0718 38.0671 33.1607 38.2515 33.2661C38.6466 33.4834 38.8441 33.7698 38.8441 34.1254C38.8441 34.56 38.5676 34.8695 38.0144 35.0539C37.4679 35.2317 36.5394 35.3206 35.229 35.3206C32.7925 35.3206 31.5743 34.8596 31.5743 33.9377C31.5743 33.7797 31.6105 33.6546 31.683 33.5624C31.7554 33.4636 31.92 33.3286 32.1768 33.1574C32.4666 32.9665 32.6608 32.7426 32.7596 32.4858C32.865 32.2224 32.9374 31.7713 32.9769 31.1325C33.0098 30.665 33.0263 28.9891 33.0263 26.1049C33.0263 25.1896 32.9802 24.5673 32.888 24.2381C32.7958 23.9088 32.5983 23.6685 32.2954 23.517C32.0056 23.3787 31.8114 23.2536 31.7126 23.1417C31.6138 23.0231 31.5644 22.8717 31.5644 22.6873C31.5644 22.4436 31.6566 22.2329 31.841 22.0551C32.032 21.8708 32.2954 21.7358 32.6312 21.6502C32.9143 21.5777 33.3029 21.5415 33.7967 21.5415C34.014 21.5415 34.5573 21.5744 35.4265 21.6403C35.5911 21.6534 35.8513 21.66 36.2068 21.66C36.7995 21.66 37.5897 21.6205 38.5774 21.5415C39.203 21.4954 39.6409 21.4724 39.8911 21.4724C41.3003 21.4724 42.4659 21.8115 43.3878 22.4897C44.2175 23.1021 44.6323 23.9516 44.6323 25.0381C44.6323 25.644 44.4875 26.1971 44.1977 26.6976C43.908 27.1914 43.5096 27.5635 43.0026 27.8137C42.7918 27.9191 42.6865 28.0442 42.6865 28.1891C42.6865 28.38 42.8478 28.5348 43.1705 28.6533C43.8619 28.9035 44.3689 29.2822 44.6916 29.7892C45.0143 30.2962 45.2447 31.0733 45.383 32.1203C45.4423 32.5549 45.5279 32.8381 45.6398 32.9698C45.7518 33.0949 46.0119 33.2167 46.4202 33.3352C46.5453 33.3747 46.6506 33.4603 46.7362 33.592C46.8218 33.7172 46.8646 33.8587 46.8646 34.0168C46.8646 34.2209 46.7856 34.4283 46.6276 34.6391C46.4695 34.8432 46.2654 35.0045 46.0152 35.123C45.462 35.3799 44.7048 35.5083 43.7434 35.5083C42.4593 35.5083 41.5407 35.1691 40.9875 34.4909C40.7373 34.188 40.5233 33.806 40.3455 33.3451C40.1743 32.8842 39.9702 32.1664 39.7331 31.1918C39.5816 30.5662 39.3874 30.125 39.1503 29.8682C38.9199 29.6114 38.5873 29.4731 38.1527 29.4534ZM37.5798 24.4159L37.4712 26.7173C37.4712 26.7371 37.4712 26.7667 37.4712 26.8062C37.4712 27.0433 37.5041 27.2013 37.5699 27.2803C37.6424 27.3593 37.7839 27.3989 37.9947 27.3989C38.5741 27.3989 38.9956 27.2507 39.259 26.9544C39.5224 26.6515 39.6541 26.1708 39.6541 25.5123C39.6541 24.2413 39.203 23.6059 38.3009 23.6059C38.0441 23.6059 37.863 23.6652 37.7576 23.7837C37.6522 23.9022 37.593 24.1129 37.5798 24.4159ZM50.0495 21.6403H55.1266C56.1538 21.6403 56.9012 21.6205 57.3688 21.581C57.8429 21.5349 58.3038 21.446 58.7516 21.3143C58.8899 21.2748 58.9985 21.2551 59.0776 21.2551C59.42 21.2551 59.7229 21.4394 59.9863 21.8082C60.4209 22.4074 60.6382 23.1318 60.6382 23.9812C60.6382 24.4093 60.546 24.7484 60.3616 24.9986C60.1838 25.2423 59.9369 25.3641 59.6208 25.3641C59.4035 25.3641 59.2323 25.3213 59.1072 25.2357C58.9887 25.1435 58.8273 24.9427 58.6232 24.6332C58.3335 24.192 57.9647 23.8989 57.5169 23.7541C57.0757 23.6026 56.3481 23.5269 55.334 23.5269C54.5767 23.5269 54.1158 23.6619 53.9512 23.9319C53.8655 24.0767 53.8129 24.271 53.7931 24.5146C53.7799 24.7583 53.7734 25.3806 53.7734 26.3815C53.7734 26.7766 53.8392 27.0235 53.9709 27.1223C54.1026 27.2145 54.4483 27.2606 55.008 27.2606C55.2846 27.2606 55.4855 27.2046 55.6106 27.0927C55.7357 26.9741 55.8147 26.7667 55.8476 26.4704C55.8937 26.0884 55.9398 25.8283 55.9859 25.69C56.0386 25.5452 56.1308 25.4201 56.2625 25.3147C56.4008 25.1962 56.5621 25.1369 56.7465 25.1369C57.0165 25.1369 57.2469 25.2653 57.4379 25.5221C57.5762 25.7131 57.6914 26.0522 57.7836 26.5395C57.8824 27.0202 57.9318 27.524 57.9318 28.0508C57.9318 29.0912 57.7704 29.944 57.4478 30.609C57.27 30.9712 57 31.1523 56.6378 31.1523C56.4139 31.1523 56.2592 31.0963 56.1736 30.9844C56.088 30.8659 56.0221 30.6255 55.976 30.2633C55.8773 29.5192 55.4427 29.1472 54.6722 29.1472C54.3759 29.1472 54.1717 29.2427 54.0598 29.4336C53.9544 29.618 53.9018 29.9637 53.9018 30.4708C53.9018 30.7802 53.9215 31.1819 53.961 31.6758C54.0071 32.1631 54.0532 32.4858 54.0993 32.6438C54.152 32.8413 54.3133 32.9796 54.5833 33.0587C54.8599 33.1311 55.3175 33.1673 55.9563 33.1673C56.944 33.1673 57.6881 33.0422 58.1886 32.792C58.6891 32.5351 59.0973 32.0742 59.4134 31.4091C59.5978 31.0272 59.7624 30.7704 59.9073 30.6387C60.0587 30.507 60.253 30.4411 60.49 30.4411C60.7666 30.4411 60.9938 30.5629 61.1716 30.8066C61.356 31.0436 61.4482 31.3433 61.4482 31.7054C61.4482 32.1005 61.3461 32.5944 61.142 33.1871C60.9378 33.7797 60.6876 34.3065 60.3913 34.7675C60.2398 34.9913 60.1147 35.1395 60.0159 35.2119C59.9172 35.291 59.792 35.3305 59.6406 35.3305C59.5155 35.3305 59.3344 35.3107 59.0973 35.2712C58.6759 35.1922 58.1129 35.1428 57.4083 35.123H49.0322C48.6963 35.123 48.4362 35.0506 48.2518 34.9057C48.0675 34.7543 47.9753 34.5436 47.9753 34.2736C47.9753 34.0826 48.0148 33.9443 48.0938 33.8587C48.1728 33.7731 48.3539 33.6645 48.6371 33.5328C48.8346 33.4472 48.9795 33.3418 49.0717 33.2167C49.1704 33.0916 49.2462 32.9072 49.2989 32.6636C49.5162 31.6692 49.6248 30.3292 49.6248 28.6434C49.6248 26.1016 49.4668 24.4982 49.1507 23.8331C49.0848 23.7014 49.0124 23.6092 48.9334 23.5565C48.8544 23.5038 48.6897 23.4413 48.4395 23.3688C48.0642 23.2569 47.8765 23.0067 47.8765 22.6181C47.8765 22.4074 47.9391 22.2198 48.0642 22.0551C48.1893 21.8905 48.3539 21.7819 48.558 21.7292C48.8149 21.6699 49.312 21.6403 50.0495 21.6403Z" fill="#237C24"/>
<path d="M72.825 35.123H65.0838C64.4018 35.123 64.0608 34.9298 64.0608 34.5433C64.0608 34.3463 64.1327 34.1644 64.2767 33.9977C64.4207 33.8234 64.8868 33.3649 65.6749 32.6222C67.1375 31.243 68.2212 29.9585 68.926 28.7687C69.2898 28.1624 69.4716 27.6395 69.4716 27.2C69.4716 26.8211 69.3617 26.5217 69.142 26.302C68.9222 26.0746 68.6267 25.9609 68.2553 25.9609C67.9067 25.9609 67.6415 26.0102 67.4596 26.1087C67.2777 26.1996 66.8761 26.5066 66.2547 27.0295C66.0879 27.1659 65.8682 27.2341 65.5954 27.2341C65.2392 27.2341 64.9095 27.0977 64.6064 26.8249C64.3108 26.5445 64.1631 26.2413 64.1631 25.9155C64.1631 25.6199 64.2995 25.2865 64.5723 24.9151C64.8451 24.5362 65.2051 24.18 65.6522 23.8466C67.2891 22.672 69.1041 22.0847 71.0972 22.0847C72.6128 22.0847 73.867 22.3764 74.8598 22.9599C75.3069 23.2252 75.6669 23.5965 75.9397 24.0739C76.2125 24.5514 76.3489 25.0515 76.3489 25.5744C76.3489 26.9006 75.4319 28.3405 73.598 29.894C72.9463 30.4397 72.6204 30.8489 72.6204 31.1217C72.6204 31.3339 72.7189 31.5158 72.9159 31.6674C73.113 31.8113 73.3517 31.8833 73.6321 31.8833C74.299 31.8833 74.8939 31.6257 75.4168 31.1104C75.682 30.8527 75.8563 30.6973 75.9397 30.6443C76.0306 30.5912 76.1519 30.5647 76.3034 30.5647C76.9703 30.5647 77.3038 31.1331 77.3038 32.2698C77.3038 32.8382 77.1939 33.4141 76.9741 33.9977C76.7619 34.5812 76.4701 35.0852 76.0988 35.5095C75.7047 35.9642 75.2728 36.1916 74.8029 36.1916C74.6135 36.1916 74.4619 36.1499 74.3482 36.0665C74.2346 35.9908 74.1057 35.843 73.9617 35.6232C73.8253 35.411 73.6889 35.2746 73.5525 35.214C73.4237 35.1534 73.1812 35.123 72.825 35.123ZM90.5404 22.437V30.2919C90.5404 30.5268 90.5707 30.6898 90.6313 30.7807C90.6995 30.8641 90.8208 30.9057 90.9951 30.9057H91.4725C91.8287 30.8982 92.0144 31.1141 92.0295 31.5537V33.8613C92.0295 34.2629 91.8249 34.4903 91.4157 34.5433C91.1504 34.5736 90.9837 34.6229 90.9155 34.6911C90.8473 34.7593 90.8132 34.9222 90.8132 35.1799V36.5212C90.8435 36.9987 90.6238 37.2487 90.1539 37.2715H86.2663C85.9934 37.2715 85.8154 37.2222 85.732 37.1237C85.6486 37.0328 85.607 36.8319 85.607 36.5212V35.3504C85.607 35.0321 85.5463 34.8123 85.4251 34.6911C85.3038 34.5623 85.0916 34.4978 84.7885 34.4978H80.3552C79.8247 34.4978 79.4496 34.388 79.2298 34.1682C79.0177 33.9408 78.9116 33.5543 78.9116 33.0087C78.9116 32.2812 78.9987 31.7128 79.173 31.3036C79.3852 30.7959 79.9953 29.9395 81.0032 28.7346L83.8905 25.2675C85.3379 23.5321 86.4065 22.4257 87.0961 21.9482C87.4068 21.7361 87.7819 21.5618 88.2215 21.4253C88.6686 21.2889 89.0854 21.2207 89.4719 21.2207C89.8508 21.2207 90.1236 21.3155 90.2903 21.5049C90.457 21.6944 90.5404 22.0051 90.5404 22.437ZM85.7661 28.3367V27.7797C85.7661 27.0977 85.5766 26.7567 85.1977 26.7567C84.9098 26.7567 84.6407 26.912 84.3906 27.2227L82.6401 29.3711C82.1323 30.0001 81.8784 30.4511 81.8784 30.7239C81.8784 30.9209 81.9845 31.0497 82.1967 31.1104C82.4089 31.1634 82.9356 31.2013 83.7768 31.224L84.6748 31.2354C85.0613 31.2354 85.3228 31.1937 85.4592 31.1104C85.5956 31.0194 85.6752 30.8451 85.6979 30.5875C85.7434 30.1707 85.7661 29.4204 85.7661 28.3367Z" fill="#FE7336"/>
</svg>
